<svg width="235" height="235" viewBox="0 0 235 235" fill="none" xmlns="http://www.w3.org/2000/svg">
<g clip-path="url(#clip0_10_2)">
<path d="M159.806 42.4264L84.8528 117.38L159.806 192.333L125.865 226.274L16.9706 117.38L125.865 8.48529L159.806 42.4264Z" fill="#FFA519" fill-opacity="0.5"/>
<path d="M208.659 207.97L191.689 224.941L114.189 147.441L131.159 130.47L208.659 207.97Z" fill="#FFA51A"/>
<path d="M229.872 186.758L204.417 212.213L126.917 134.713L152.372 109.258L229.872 186.758Z" fill="#FFA519" fill-opacity="0.5"/>
<path d="M234.759 117.38L117.38 234.759L6.55651e-06 117.38L117.38 7.62939e-06L234.759 117.38ZM33.9411 117.38L117.38 200.818L200.818 117.38L117.38 33.9411L33.9411 117.38Z" fill="#FFA51A"/>
</g>
<defs>
<clipPath id="clip0_10_2">
<rect width="235" height="235" fill="white"/>
</clipPath>
</defs>
</svg>
